<svg width="100%" height="100%" viewBox="0 0 481 352" version="1.1" xmlns="http://www.w3.org/2000/svg" xmlns:xlink="http://www.w3.org/1999/xlink" xml:space="preserve" xmlns:serif="http://www.serif.com/" style="fill-rule:evenodd;clip-rule:evenodd;stroke-linejoin:round;stroke-miterlimit:2;">
    <g transform="matrix(1,0,0,1,-7.29781e-06,-64.013)">
        <g>
            <path d="M475.922,229.325L331.922,69.325C328.85,65.933 324.562,64.013 320.018,64.013L224.018,64.013C217.714,64.013 211.986,67.725 209.394,73.485C206.834,79.277 207.89,86.029 212.114,90.701L346.482,240.013L212.114,389.293C207.89,393.997 206.802,400.749 209.394,406.509C211.986,412.301 217.714,416.013 224.018,416.013L320.018,416.013C324.562,416.013 328.85,414.061 331.922,410.733L475.922,250.733C481.394,244.653 481.394,235.373 475.922,229.325Z" style="fill:rgb(235,235,235);fill-rule:nonzero;" />
        </g>
        <g>
            <path d="M267.922,229.325L123.922,69.325C120.85,65.933 116.562,64.013 112.018,64.013L16.018,64.013C9.714,64.013 3.986,67.725 1.394,73.485C-1.166,79.277 -0.11,86.029 4.114,90.701L138.482,240.013L4.114,389.293C-0.11,393.997 -1.198,400.749 1.394,406.509C3.986,412.301 9.714,416.013 16.018,416.013L112.018,416.013C116.562,416.013 120.85,414.061 123.922,410.733L267.922,250.733C273.394,244.653 273.394,235.373 267.922,229.325Z" style="fill:rgb(235,235,235);fill-rule:nonzero;" />
        </g>
    </g>
</svg>
